<svg xmlns="http://www.w3.org/2000/svg" version="1.1" xmlns:xlink="http://www.w3.org/1999/xlink" xmlns:svgjs="http://svgjs.dev/svgjs" width="1800" height="400" preserveAspectRatio="none" viewBox="0 0 1800 400"><g mask="url(&quot;#SvgjsMask2357&quot;)" fill="none"><path d="M860.47-75.68C770.63-70.75 795.9 85.75 541.52 91.04 287.14 96.33 69.31 269.33-96.39 271.04" stroke="rgba(255, 255, 255, 1)" stroke-width="2"></path><path d="M607.08-2.81C468.05 7.27 370.84 277.84 125.75 278.68-119.34 279.52-232.88 183.15-355.58 182.68" stroke="rgba(255, 255, 255, 1)" stroke-width="2"></path><path d="M1203.38-3.88C1076.55-3.53 953.84 85.12 703.92 85.13 453.99 85.14 454.19 35.13 204.45 35.13-45.28 35.13-169.52 85.07-295.01 85.13" stroke="rgba(255, 255, 255, 1)" stroke-width="2"></path><path d="M1343.85-51.33C1219.67-49.81 1232.58 89.5 867.94 91.09 503.29 92.68 157.24 246.57-83.89 247.09" stroke="rgba(255, 255, 255, 1)" stroke-width="2"></path><path d="M1231.63-50.74C1044.08-50.25 868.14 78.16 492.78 79.22 117.42 80.28-58.26 214.66-246.07 215.22" stroke="rgba(255, 255, 255, 1)" stroke-width="2"></path></g><defs><mask id="SvgjsMask2357"><rect width="1800" height="400" fill="#ffffff"></rect></mask></defs></svg>