<svg xmlns="http://www.w3.org/2000/svg" version="1.1" xmlns:xlink="http://www.w3.org/1999/xlink" xmlns:svgjs="http://svgjs.dev/svgjs" width="1800" height="400" preserveAspectRatio="none" viewBox="0 0 1800 400"><g mask="url(&quot;#SvgjsMask2438&quot;)" fill="none"><path d="M1048.5-15.66C892.33-12.94 768.88 180.09 456.92 185.34 144.97 190.59 21.13 378.81-134.65 381.34" stroke="rgba(203, 233, 240, 1)" stroke-width="2"></path><path d="M1257.97-61.45C1060.41-60.26 882.68 116.25 488.45 118.33 94.21 120.41-84.38 281.42-281.08 282.33" stroke="rgba(203, 233, 240, 1)" stroke-width="2"></path><path d="M834.27-66.01C732.35-57.88 759.18 142.88 484.89 146.57 210.6 150.26-36.95 258.22-213.87 258.57" stroke="rgba(203, 233, 240, 1)" stroke-width="2"></path><path d="M781.88-4.22C661.96-3.48 559.75 102.57 315.04 106.02 70.32 109.47-26.4 286.74-151.81 290.02" stroke="rgba(203, 233, 240, 1)" stroke-width="2"></path><path d="M833.12-38.11C726.13-19.89 754.3 242.88 502.75 243.53 251.19 244.18 9.38 135.89-158 135.53" stroke="rgba(203, 233, 240, 1)" stroke-width="2"></path></g><defs><mask id="SvgjsMask2438"><rect width="1800" height="400" fill="#ffffff"></rect></mask></defs></svg>