<svg xmlns="http://www.w3.org/2000/svg" version="1.1" xmlns:xlink="http://www.w3.org/1999/xlink" xmlns:svgjs="http://svgjs.dev/svgjs" width="600" height="400" preserveAspectRatio="none" viewBox="0 0 600 400"><g mask="url(&quot;#SvgjsMask2459&quot;)" fill="none"><path d="M330.95-58.62C271.64-7.95 308.77 224.63 208.11 228.2 107.45 231.77 31.13 107.65-37.58 104.2" stroke="rgba(203, 233, 240, 1)" stroke-width="2"></path><path d="M273.72-58.61C227.98-56.19 213.93 10.09 110.86 25.37 7.8 40.65 5.87 185.7-51.99 201.37" stroke="rgba(203, 233, 240, 1)" stroke-width="2"></path><path d="M232.07-60.73C174.46-4 217.25 233.86 117.02 241.52 16.79 249.18-50.78 147.42-113.08 145.52" stroke="rgba(203, 233, 240, 1)" stroke-width="2"></path><path d="M339.49-71.41C256.25-42.62 260.25 180.23 118.56 203.01-23.13 225.79-42.57 293.2-102.37 295.01" stroke="rgba(203, 233, 240, 1)" stroke-width="2"></path><path d="M258.79-16.42C207.35 9.16 231.76 176 134.9 177.13 38.04 178.26-47.48 94.26-112.88 93.13" stroke="rgba(203, 233, 240, 1)" stroke-width="2"></path></g><defs><mask id="SvgjsMask2459"><rect width="600" height="400" fill="#ffffff"></rect></mask></defs></svg>