<svg xmlns="http://www.w3.org/2000/svg" version="1.1" xmlns:xlink="http://www.w3.org/1999/xlink" xmlns:svgjs="http://svgjs.dev/svgjs" width="600" height="100" preserveAspectRatio="none" viewBox="0 0 600 100"><g mask="url(&quot;#SvgjsMask2463&quot;)" fill="none"><path d="M325.31-18.26C272.52-17.9 225.25 31.01 120.13 31.57 15 32.13-32.7 73.36-85.06 73.57" stroke="rgba(203, 233, 240, 1)" stroke-width="2"></path><path d="M434.1-17.25C394.43-17.24 395.48-6.03 275.81-5.91 156.14-5.79 39.33 42.95-40.76 43.09" stroke="rgba(203, 233, 240, 1)" stroke-width="2"></path><path d="M325.2-0.8C287.58 1.11 292.11 67.31 190.83 67.36 89.55 67.41-10.37 39.4-77.92 39.36" stroke="rgba(203, 233, 240, 1)" stroke-width="2"></path><path d="M435.42-6.59C394.95-4.84 399.05 63.06 289.13 63.07 179.21 63.08 70.48 20.18-3.45 20.07" stroke="rgba(203, 233, 240, 1)" stroke-width="2"></path><path d="M217.52-14.6C183.82-9.85 191.75 68.96 110.17 69.13 28.58 69.3-50.31 38.21-104.54 38.13" stroke="rgba(203, 233, 240, 1)" stroke-width="2"></path></g><defs><mask id="SvgjsMask2463"><rect width="600" height="100" fill="#ffffff"></rect></mask></defs></svg>