<svg xmlns="http://www.w3.org/2000/svg" version="1.1" xmlns:xlink="http://www.w3.org/1999/xlink" xmlns:svgjs="http://svgjs.dev/svgjs" width="2000" height="500" preserveAspectRatio="none" viewBox="0 0 2000 500"><g mask="url(&quot;#SvgjsMask2488&quot;)" fill="none"><path d="M1152.43-7.73C982.58-3.18 837.89 243.36 520.91 243.47 203.92 243.58 51.09 104.31-110.62 103.47" stroke="rgba(203, 233, 240, 1)" stroke-width="2"></path><path d="M655.02-71.53C517.54-69 415.97 100.49 135.36 108.6-145.26 116.71-240.81 347.56-384.31 353.6" stroke="rgba(203, 233, 240, 1)" stroke-width="2"></path><path d="M1675.86-31.14C1444.77-29.36 1242.99 193.22 780.07 197.07 317.14 200.92 116.11 435-115.73 437.07" stroke="rgba(203, 233, 240, 1)" stroke-width="2"></path><path d="M1598.61-4.9C1356.38-4.48 1127.03 140.14 640.81 141.41 154.58 142.68-72.88 330.5-317 331.41" stroke="rgba(203, 233, 240, 1)" stroke-width="2"></path><path d="M1338.62-31.22C1209.98-29.89 1225.22 105.97 843.34 108.41 461.45 110.85 106.17 322.18-147.23 323.41" stroke="rgba(203, 233, 240, 1)" stroke-width="2"></path></g><defs><mask id="SvgjsMask2488"><rect width="2000" height="500" fill="#ffffff"></rect></mask></defs></svg>